<svg width="411" height="750" viewBox="0 0 411 750" fill="none" xmlns="http://www.w3.org/2000/svg">
<g opacity="0.1">
<path d="M111.681 230.35L2.99997 454.401V3L111.593 218.565C113.457 222.265 113.489 226.622 111.681 230.35Z" fill="#213B6D"/>
<path d="M238.413 423.28L189.112 521.146C188.317 522.725 188.303 524.584 189.074 526.175L295.9 746.401H407.712L248.57 423.325C246.501 419.124 240.52 419.097 238.413 423.28Z" fill="#213B6D"/>
<path d="M149.473 317.862C149.473 352.554 121.35 380.677 86.6577 380.677C121.35 380.677 149.473 408.8 149.473 443.492C149.473 408.8 177.596 380.677 212.288 380.677C177.596 380.677 149.473 352.554 149.473 317.862Z" fill="#213B6D"/>
<path d="M111.681 230.35L2.99997 454.401V3L111.593 218.565C113.457 222.265 113.489 226.622 111.681 230.35Z" stroke="#213B6D" stroke-width="5.95586" stroke-linecap="round" stroke-linejoin="round"/>
<path d="M238.413 423.28L189.112 521.146C188.317 522.725 188.303 524.584 189.074 526.175L295.9 746.401H407.712L248.57 423.325C246.501 419.124 240.52 419.097 238.413 423.28Z" stroke="#213B6D" stroke-width="5.95586" stroke-linecap="round" stroke-linejoin="round"/>
<path d="M149.473 317.862C149.473 352.554 121.35 380.677 86.6577 380.677C121.35 380.677 149.473 408.8 149.473 443.492C149.473 408.8 177.596 380.677 212.288 380.677C177.596 380.677 149.473 352.554 149.473 317.862Z" stroke="#213B6D" stroke-width="5.95586" stroke-linecap="round" stroke-linejoin="round"/>
</g>
</svg>
